<svg width="224.55" height="206.86" viewBox="0 0 59.412 54.732" xml:space="preserve" xmlns="http://www.w3.org/2000/svg"><path style="fill:#000;stroke-width:.264583" d="M96.724 79.772c7.354 5.01 12.209 13.197 12.903 21.754l.185 2.28H88.645l-.162-1.18c-.301-2.199-2.07-4.996-3.724-5.892-.468-.253-.121-.948 4.47-8.97 2.737-4.784 5.108-8.835 5.27-9.004.218-.23.776.024 2.225 1.012zM65.75 78.745c.137.177 2.49 4.235 5.228 9.018 4.595 8.023 4.942 8.718 4.474 8.97-1.655.897-3.422 3.694-3.724 5.893l-.161 1.18H50.4l.185-2.28c.696-8.581 5.587-16.806 12.947-21.772 1.465-.989 2.036-1.248 2.22-1.01zM82.223 97.8c1.298.41 3.513 2.703 3.911 4.05.733 2.481.217 4.459-1.653 6.329-2.677 2.677-6.073 2.677-8.75 0-2.676-2.677-2.676-6.072 0-8.75 1.862-1.861 4.03-2.405 6.492-1.629zm2.849 14.256c1.075 1.773 9.652 16.746 9.772 17.06.145.377-2.671 1.85-5.176 2.707-7.142 2.444-15.195 2.017-21.931-1.165-1.346-.635-2.448-1.207-2.448-1.27 0-.115 9.493-16.455 10.202-17.562l.37-.577 1.455.51c2.16.76 4.325.633 6.793-.398.31-.13.583.068.963.695z" transform="translate(-50.4 -78.662)"/></svg>