<?xml version="1.0" encoding="UTF-8" standalone="no"?>
<!DOCTYPE svg PUBLIC "-//W3C//DTD SVG 1.1//EN" "http://www.w3.org/Graphics/SVG/1.1/DTD/svg11.dtd">
<svg width="100%" height="100%" viewBox="0 0 512 512" version="1.1" xmlns="http://www.w3.org/2000/svg" xmlns:xlink="http://www.w3.org/1999/xlink" xml:space="preserve" xmlns:serif="http://www.serif.com/" style="fill-rule:evenodd;clip-rule:evenodd;stroke-linejoin:round;stroke-miterlimit:2;">
    <path d="M512,76.8C512,34.413 477.587,0 435.2,0L76.8,0C34.413,0 0,34.413 0,76.8L0,435.2C0,477.587 34.413,512 76.8,512L435.2,512C477.587,512 512,477.587 512,435.2L512,76.8Z" style="fill:rgb(24,23,23);"/>
    <g transform="matrix(1.0516,0,0,1.0516,13.977,77.3711)">
        <path d="M230.149,120.939L65.986,256.274C65.986,256.465 65.938,256.746 65.842,257.129C65.748,257.509 65.698,257.785 65.698,257.981L65.698,395.022C65.698,399.97 67.507,404.258 71.124,407.869C74.74,411.482 79.022,413.3 83.971,413.3L193.601,413.3L193.601,303.664L266.698,303.664L266.698,413.304L376.327,413.304C381.275,413.304 385.563,411.49 389.174,407.869C392.791,404.262 394.606,399.971 394.606,395.022L394.606,257.981C394.606,257.221 394.502,256.647 394.318,256.274L230.149,120.939Z" style="fill:white;fill-rule:nonzero;"/>
        <path d="M457.122,225.438L394.6,173.476L394.6,56.989C394.6,54.326 393.744,52.136 392.026,50.422C390.322,48.71 388.132,47.854 385.463,47.854L330.647,47.854C327.981,47.854 325.792,48.71 324.077,50.422C322.366,52.136 321.511,54.327 321.511,56.989L321.511,112.662L251.849,54.417C245.765,49.468 238.531,46.994 230.155,46.994C221.78,46.994 214.547,49.468 208.457,54.417L3.172,225.438C1.269,226.958 0.226,229.004 0.032,231.574C-0.161,234.142 0.504,236.385 2.029,238.287L19.73,259.415C21.255,261.127 23.251,262.174 25.726,262.557C28.011,262.749 30.296,262.081 32.581,260.559L230.149,95.817L427.719,260.558C429.245,261.886 431.24,262.549 433.715,262.549L434.573,262.549C437.044,262.173 439.036,261.119 440.569,259.411L458.272,238.286C459.794,236.38 460.461,234.141 460.263,231.57C460.068,229.007 459.021,226.961 457.122,225.438Z" style="fill:white;fill-rule:nonzero;"/>
    </g>
</svg>
