<svg class="svg-icon" style="width: 1em; height: 1em;vertical-align: middle;fill: currentColor;overflow: hidden;" viewBox="0 0 1024 1024" version="1.1" xmlns="http://www.w3.org/2000/svg"><path d="M1024 885.461333v-269.056c-140.16 55.296-314.112 109.056-521.813333 161.536-193.450667 48.853333-360.874667 84.053333-502.186667 105.6v1.92h1024zM0 600.661333v219.008c159.488-23.466667 303.616-51.456 432.213333-83.925333 126.378667-31.914667 223.786667-62.933333 292.138667-93.013333 68.352-29.994667 99.84-55.338667 94.72-75.946667-4.565333-17.92-36.096-27.093333-94.592-27.52-29.994667 0.426667-71.253333 2.56-123.904 6.4-52.736 3.84-118.357333 9.984-196.693333 18.176-121.6 12.970667-222.549333 22.912-302.933334 29.610667-38.229333 3.2-71.893333 5.632-100.949333 7.253333z m44.16 125.866667c2.56 0 4.864 1.066667 6.826667 2.986667a9.941333 9.941333 0 0 1-10.922667 16.298666 10.026667 10.026667 0 0 1-3.2-2.133333c-0.981333-0.597333-1.706667-1.877333-2.133333-3.157333 0-0.64-0.682667-1.92-0.682667-3.84 0-2.56 1.28-5.12 3.2-7.04s4.48-2.56 7.68-2.56z m34.56 0c2.688 0 4.992 1.066667 7.04 2.986667a9.813333 9.813333 0 0 1 2.816 7.082666c0 2.816-0.938667 5.12-2.858667 7.168a11.52 11.52 0 0 1-11.52 2.048 8.277333 8.277333 0 0 1-3.242666-2.133333c-1.28-0.597333-1.92-1.877333-2.56-3.157333-0.64-0.64-0.64-1.92-0.64-3.84 0-2.56 0.597333-5.12 2.56-7.04s4.437333-2.56 6.997333-2.56z m-34.56-64.426667c2.56 0 4.864 0.938667 6.826667 2.986667 1.962667 1.92 2.986667 4.266667 2.986666 7.04 0 2.730667-1.024 5.12-2.986666 7.04s-4.266667 2.986667-6.997334 2.986667a9.685333 9.685333 0 0 1-7.125333-2.986667 9.813333 9.813333 0 0 1-2.986667-7.04c0-2.858667 0.682667-5.248 2.56-7.168s4.522667-2.901333 7.082667-2.901333z m34.56 0c2.688 0 4.992 0.938667 7.04 2.986667 1.92 1.92 2.816 4.266667 2.816 7.04 0 2.730667-0.938667 5.12-2.858667 7.04-2.56 1.92-4.522667 2.986667-7.68 2.986667s-5.12-1.024-7.082666-2.986667a10.026667 10.026667 0 0 1-3.2-7.04c0-2.858667 0.597333-5.248 2.56-7.168s4.437333-2.901333 6.997333-2.901333zM1024 196.138667V401.493333c-69.76 4.266667-157.013333 11.818667-261.888 22.784-106.24 11.52-192.853333 20.48-259.968 26.24-67.242667 6.4-115.754667 9.642667-145.493333 10.24-58.154667 1.28-89.173333-6.4-93.653334-23.637333-4.48-19.2 30.08-44.8 104.32-75.52 74.24-31.36 172.8-62.72 294.4-93.44 106.88-26.88 227.84-50.56 362.24-70.4z m-36.48-57.6c-138.88 25.813333-282.752 57.6-431.530667 95.146666C323.712 292.352 138.410667 350.72 0 408.448V138.581333h987.562667z" fill="" /></svg>